HIERARCHY
ROOT mixamorig:Hips
{
	OFFSET 0.000000 201.639420 0.000000
	CHANNELS 6 Xposition Yposition Zposition Xrotation Yrotation Zrotation
	JOINT mixamorig:Spine
	{
		OFFSET 0.006200 19.524994 -2.481800
		CHANNELS 3 Xrotation Yrotation Zrotation
		JOINT mixamorig:Spine1
		{
			OFFSET -0.000900 22.835007 -2.825400
			CHANNELS 3 Xrotation Yrotation Zrotation
			JOINT mixamorig:Spine2
			{
				OFFSET -0.020600 26.552490 -3.193300
				CHANNELS 3 Xrotation Yrotation Zrotation
				JOINT mixamorig:Neck
				{
					OFFSET -0.060000 30.701813 1.352200
					CHANNELS 3 Xrotation Yrotation Zrotation
					JOINT mixamorig:Head
					{
						OFFSET -0.087200 22.547607 3.670900
						CHANNELS 3 Xrotation Yrotation Zrotation
						JOINT mixamorig:HeadTop_End
						{
							OFFSET -0.830600 40.355194 7.893500
							CHANNELS 3 Xrotation Yrotation Zrotation
							End Site
							{
								OFFSET 0.000000 30.592346 0.000000
							}
						}
						JOINT mixamorig:RightEye
						{
							OFFSET -6.302100 18.118591 16.197100
							CHANNELS 3 Xrotation Yrotation Zrotation
							End Site
							{
								OFFSET 0.000000 30.592346 0.000000
							}
						}
						JOINT mixamorig:LeftEye
						{
							OFFSET 6.741500 18.382690 16.401899
							CHANNELS 3 Xrotation Yrotation Zrotation
							End Site
							{
								OFFSET 0.000000 30.592346 0.000000
							}
						}
					}
				}
				JOINT mixamorig:LeftShoulder
				{
					OFFSET 11.924900 18.230499 1.425400
					CHANNELS 3 Xrotation Yrotation Zrotation
					JOINT mixamorig:LeftArm
					{
						OFFSET 25.435989 -0.697632 -5.229300
						CHANNELS 3 Xrotation Yrotation Zrotation
						JOINT mixamorig:LeftForeArm
						{
							OFFSET 54.684776 0.000000 0.000000
							CHANNELS 3 Xrotation Yrotation Zrotation
							JOINT mixamorig:LeftHand
							{
								OFFSET 55.098175 0.000000 0.000000
								CHANNELS 3 Xrotation Yrotation Zrotation
								JOINT mixamorig:LeftHandMiddle1
								{
									OFFSET 23.369751 0.000000 0.000000
									CHANNELS 3 Xrotation Yrotation Zrotation
									JOINT mixamorig:LeftHandMiddle2
									{
										OFFSET 6.378677 0.000000 0.000000
										CHANNELS 3 Xrotation Yrotation Zrotation
										JOINT mixamorig:LeftHandMiddle3
										{
											OFFSET 6.148331 0.000000 0.000000
											CHANNELS 3 Xrotation Yrotation Zrotation
											JOINT mixamorig:LeftHandMiddle4
											{
												OFFSET 6.582504 0.000000 0.000000
												CHANNELS 3 Xrotation Yrotation Zrotation
												End Site
												{
													OFFSET -1.168900 6.395691 1.028606
												}
											}
										}
									}
								}
								JOINT mixamorig:LeftHandThumb1
								{
									OFFSET 7.235672 -3.848206 5.434273
									CHANNELS 3 Xrotation Yrotation Zrotation
									JOINT mixamorig:LeftHandThumb2
									{
										OFFSET 6.568451 -3.792297 3.792300
										CHANNELS 3 Xrotation Yrotation Zrotation
										JOINT mixamorig:LeftHandThumb3
										{
											OFFSET 6.063080 -3.500519 3.500518
											CHANNELS 3 Xrotation Yrotation Zrotation
											JOINT mixamorig:LeftHandThumb4
											{
												OFFSET 4.793182 -2.767334 2.767349
												CHANNELS 3 Xrotation Yrotation Zrotation
												End Site
												{
													OFFSET 0.101639 6.054260 1.275483
												}
											}
										}
									}
								}
								JOINT mixamorig:LeftHandIndex1
								{
									OFFSET 23.101074 -0.309540 4.992809
									CHANNELS 3 Xrotation Yrotation Zrotation
									JOINT mixamorig:LeftHandIndex2
									{
										OFFSET 6.226883 0.000000 0.000000
										CHANNELS 3 Xrotation Yrotation Zrotation
										JOINT mixamorig:LeftHandIndex3
										{
											OFFSET 6.094330 0.000000 0.000000
											CHANNELS 3 Xrotation Yrotation Zrotation
											JOINT mixamorig:LeftHandIndex4
											{
												OFFSET 5.482605 0.000000 0.000000
												CHANNELS 3 Xrotation Yrotation Zrotation
												End Site
												{
													OFFSET -1.427902 5.233032 0.797164
												}
											}
										}
									}
								}
								JOINT mixamorig:LeftHandRing1
								{
									OFFSET 22.299240 0.021149 -3.964172
									CHANNELS 3 Xrotation Yrotation Zrotation
									JOINT mixamorig:LeftHandRing2
									{
										OFFSET 6.321869 0.000000 0.000000
										CHANNELS 3 Xrotation Yrotation Zrotation
										JOINT mixamorig:LeftHandRing3
										{
											OFFSET 5.899796 0.000000 0.000000
											CHANNELS 3 Xrotation Yrotation Zrotation
											JOINT mixamorig:LeftHandRing4
											{
												OFFSET 6.517899 0.000000 0.000000
												CHANNELS 3 Xrotation Yrotation Zrotation
												End Site
												{
													OFFSET -1.637299 6.232208 0.980890
												}
											}
										}
									}
								}
								JOINT mixamorig:LeftHandPinky1
								{
									OFFSET 20.463791 -0.302338 -8.562233
									CHANNELS 3 Xrotation Yrotation Zrotation
									JOINT mixamorig:LeftHandPinky2
									{
										OFFSET 6.908646 0.000000 0.000000
										CHANNELS 3 Xrotation Yrotation Zrotation
										JOINT mixamorig:LeftHandPinky3
										{
											OFFSET 4.622849 0.000000 0.000000
											CHANNELS 3 Xrotation Yrotation Zrotation
											JOINT mixamorig:LeftHandPinky4
											{
												OFFSET 5.216080 0.000000 0.000000
												CHANNELS 3 Xrotation Yrotation Zrotation
												End Site
												{
													OFFSET -0.606308 5.116241 0.814926
												}
											}
										}
									}
								}
							}
						}
					}
				}
				JOINT mixamorig:RightShoulder
				{
					OFFSET -12.001300 18.284088 1.348900
					CHANNELS 3 Xrotation Yrotation Zrotation
					JOINT mixamorig:RightArm
					{
						OFFSET -25.308500 -0.751312 -5.164599
						CHANNELS 3 Xrotation Yrotation Zrotation
						JOINT mixamorig:RightForeArm
						{
							OFFSET -54.684429 0.000000 0.000000
							CHANNELS 3 Xrotation Yrotation Zrotation
							JOINT mixamorig:RightHand
							{
								OFFSET -55.150291 0.000000 0.000000
								CHANNELS 3 Xrotation Yrotation Zrotation
								JOINT mixamorig:RightHandMiddle1
								{
									OFFSET -23.317566 0.000000 0.000000
									CHANNELS 3 Xrotation Yrotation Zrotation
									JOINT mixamorig:RightHandMiddle2
									{
										OFFSET -6.378403 0.000000 0.000000
										CHANNELS 3 Xrotation Yrotation Zrotation
										JOINT mixamorig:RightHandMiddle3
										{
											OFFSET -6.148193 0.000000 0.000000
											CHANNELS 3 Xrotation Yrotation Zrotation
											JOINT mixamorig:RightHandMiddle4
											{
												OFFSET -6.583389 0.000000 0.000000
												CHANNELS 3 Xrotation Yrotation Zrotation
												End Site
												{
													OFFSET 1.171692 6.395905 1.029786
												}
											}
										}
									}
								}
								JOINT mixamorig:RightHandThumb1
								{
									OFFSET -7.190521 -3.860474 5.435846
									CHANNELS 3 Xrotation Yrotation Zrotation
									JOINT mixamorig:RightHandThumb2
									{
										OFFSET -6.567429 -3.791718 3.791708
										CHANNELS 3 Xrotation Yrotation Zrotation
										JOINT mixamorig:RightHandThumb3
										{
											OFFSET -6.062469 -3.500153 3.500166
											CHANNELS 3 Xrotation Yrotation Zrotation
											JOINT mixamorig:RightHandThumb4
											{
												OFFSET -4.792618 -2.767029 2.767022
												CHANNELS 3 Xrotation Yrotation Zrotation
												End Site
												{
													OFFSET -0.100327 6.053253 1.276754
												}
											}
										}
									}
								}
								JOINT mixamorig:RightHandIndex1
								{
									OFFSET -23.048981 -0.310791 4.992554
									CHANNELS 3 Xrotation Yrotation Zrotation
									JOINT mixamorig:RightHandIndex2
									{
										OFFSET -6.227539 0.000000 0.000000
										CHANNELS 3 Xrotation Yrotation Zrotation
										JOINT mixamorig:RightHandIndex3
										{
											OFFSET -6.095047 0.000000 0.000000
											CHANNELS 3 Xrotation Yrotation Zrotation
											JOINT mixamorig:RightHandIndex4
											{
												OFFSET -5.484772 0.000000 0.000000
												CHANNELS 3 Xrotation Yrotation Zrotation
												End Site
												{
													OFFSET 1.420593 5.237305 0.797056
												}
											}
										}
									}
								}
								JOINT mixamorig:RightHandRing1
								{
									OFFSET -22.246323 0.020569 -3.963762
									CHANNELS 3 Xrotation Yrotation Zrotation
									JOINT mixamorig:RightHandRing2
									{
										OFFSET -6.322128 0.000000 0.000000
										CHANNELS 3 Xrotation Yrotation Zrotation
										JOINT mixamorig:RightHandRing3
										{
											OFFSET -5.900024 0.000000 0.000000
											CHANNELS 3 Xrotation Yrotation Zrotation
											JOINT mixamorig:RightHandRing4
											{
												OFFSET -6.518356 0.000000 0.000000
												CHANNELS 3 Xrotation Yrotation Zrotation
												End Site
												{
													OFFSET 1.636398 6.232697 0.982186
												}
											}
										}
									}
								}
								JOINT mixamorig:RightHandPinky1
								{
									OFFSET -20.411011 -0.303314 -8.561701
									CHANNELS 3 Xrotation Yrotation Zrotation
									JOINT mixamorig:RightHandPinky2
									{
										OFFSET -6.907349 0.000000 0.000000
										CHANNELS 3 Xrotation Yrotation Zrotation
										JOINT mixamorig:RightHandPinky3
										{
											OFFSET -4.623840 0.000000 0.000000
											CHANNELS 3 Xrotation Yrotation Zrotation
											JOINT mixamorig:RightHandPinky4
											{
												OFFSET -5.218353 0.000000 0.000000
												CHANNELS 3 Xrotation Yrotation Zrotation
												End Site
												{
													OFFSET 0.602097 5.118835 0.816273
												}
											}
										}
									}
								}
							}
						}
					}
				}
			}
		}
	}
	JOINT mixamorig:LeftUpLeg
	{
		OFFSET 18.168400 -13.561905 -0.039000
		CHANNELS 3 Xrotation Yrotation Zrotation
		JOINT mixamorig:LeftLeg
		{
			OFFSET 0.577358 -80.825211 -3.695000
			CHANNELS 3 Xrotation Yrotation Zrotation
			JOINT mixamorig:LeftFoot
			{
				OFFSET -0.577356 -83.370262 -6.520700
				CHANNELS 3 Xrotation Yrotation Zrotation
				JOINT mixamorig:LeftToeBase
				{
					OFFSET 0.750401 -20.798306 25.135401
					CHANNELS 3 Xrotation Yrotation Zrotation
					JOINT mixamorig:LeftToe_End
					{
						OFFSET -0.000500 0.001200 19.917799
						CHANNELS 3 Xrotation Yrotation Zrotation
						End Site
						{
							OFFSET 0.000000 19.917805 0.000000
						}
					}
				}
			}
		}
	}
	JOINT mixamorig:RightUpLeg
	{
		OFFSET -18.162500 -13.585098 -0.041000
		CHANNELS 3 Xrotation Yrotation Zrotation
		JOINT mixamorig:RightLeg
		{
			OFFSET -0.595024 -80.945297 -3.631900
			CHANNELS 3 Xrotation Yrotation Zrotation
			JOINT mixamorig:RightFoot
			{
				OFFSET 0.595024 -83.218193 -6.561200
				CHANNELS 3 Xrotation Yrotation Zrotation
				JOINT mixamorig:RightToeBase
				{
					OFFSET -0.753601 -20.807106 25.115000
					CHANNELS 3 Xrotation Yrotation Zrotation
					JOINT mixamorig:RightToe_End
					{
						OFFSET 0.000299 0.001700 19.918200
						CHANNELS 3 Xrotation Yrotation Zrotation
						End Site
						{
							OFFSET 0.000000 19.918203 0.000000
						}
					}
				}
			}
		}
	}
}
MOTION
Frames: 4
Frame Time: 0.033333
-0.559582 186.206512 0.008870 2.010839 -25.972477 2.646503 6.154456 3.013409 -0.189351 4.599038 2.278124 -0.218133 4.581131 2.313197 -0.228456 4.643344 3.463806 0.527455 5.308084 -0.423183 -2.166127 -0.000002 0.000001 -0.000001 -0.000002 0.000001 -0.000001 -0.000002 0.000001 -0.000001 3.637642 3.045113 -9.356866 -33.554933 -26.219829 -71.414621 0.000012 -117.037914 0.000007 29.700039 -0.006976 11.662602 4.820119 6.566681 -72.419020 7.352027 6.865141 -93.932935 2.650657 5.432035 -51.995870 -0.000000 0.000003 -0.000001 11.918595 9.119167 -12.322253 14.011669 20.969418 0.558219 30.253148 68.777908 -8.348527 -0.000001 -0.000002 -0.000001 5.610853 6.763468 -79.336581 7.352083 6.865132 -93.933392 2.727245 5.490751 -52.800511 -0.000003 0.000001 0.000001 5.553244 6.752465 -78.738551 7.428385 6.859517 -94.571824 2.764915 5.519002 -53.193349 -0.000001 0.000002 0.000001 6.114375 6.841033 -82.270134 7.319398 2.780965 -93.656838 2.516230 5.324755 -50.561831 -0.000001 -0.000000 0.000001 3.633966 6.967621 4.008889 -59.849778 28.412682 77.346708 -0.000118 110.551878 0.000114 -13.538408 7.011152 -4.481202 5.418912 -6.778746 76.938318 7.889198 -6.884541 97.802080 2.026696 -4.140237 39.978129 0.000001 -0.000000 -0.000000 4.168280 -11.709914 17.164465 7.020954 -27.100775 -13.838050 38.073865 -44.823960 0.494870 0.000004 0.000001 -0.000000 5.756815 -6.845809 80.102976 7.889123 -6.884510 97.801731 1.688233 -4.546241 40.727499 -0.000001 0.000000 -0.000004 5.705877 -6.837741 78.739377 8.074280 -6.856828 99.349145 2.062609 -4.358275 41.638476 0.000000 -0.000001 -0.000001 5.756811 -6.845802 80.102970 7.889142 -6.884544 97.801752 1.688226 -4.546241 40.727506 0.000000 -0.000000 0.000001 -33.034439 9.112998 16.082570 29.382084 -9.086562 5.880081 -0.166221 -2.525308 -16.914972 -1.627693 -0.000004 0.000000 0.000000 -0.000002 -0.000000 -12.062314 -12.803304 -14.132331 38.956899 -0.308948 2.881063 -28.632595 -2.375276 7.588923 -1.564956 0.000017 -0.000003 0.000000 -0.000000 0.000000 
-0.945312 186.069962 -1.372612 1.642265 -25.144377 2.634098 6.235899 3.009673 0.113995 4.671618 2.278925 -0.041300 4.650398 2.321943 -0.054793 4.757076 3.519975 0.223502 6.062294 -0.492137 -2.263150 0.000002 0.000000 0.000000 0.000002 0.000000 0.000000 0.000002 0.000000 0.000000 3.702004 3.486830 -9.813302 -31.829447 -26.732150 -71.596625 0.000051 -117.006741 0.000036 29.761084 -0.127571 12.160897 4.820116 6.566685 -72.419020 7.352025 6.865141 -93.932935 2.650655 5.432037 -51.995867 -0.000001 0.000001 0.000002 11.918593 9.119164 -12.322256 14.011669 20.969422 0.558224 30.253152 68.777901 -8.348534 -0.000002 0.000000 0.000000 5.610854 6.763469 -79.336581 7.352085 6.865133 -93.933386 2.727236 5.490753 -52.800501 0.000003 -0.000002 -0.000002 5.553243 6.752466 -78.738544 7.428383 6.859512 -94.571817 2.764913 5.519002 -53.193349 0.000001 -0.000003 0.000002 6.114375 6.841031 -82.270134 7.319395 2.780966 -93.656838 2.516232 5.324755 -50.561835 -0.000003 -0.000000 0.000002 3.447121 6.505587 3.843659 -58.739634 28.536395 77.249112 -0.000093 110.780320 0.000089 -13.582565 6.910386 -4.498954 5.418912 -6.778747 76.938318 7.889201 -6.884540 97.802080 2.026694 -4.140235 39.978122 0.000004 0.000001 0.000002 4.168282 -11.709914 17.164469 7.020960 -27.100768 -13.838046 38.073872 -44.823957 0.494865 -0.000001 -0.000001 -0.000002 5.756814 -6.845812 80.102976 7.889123 -6.884510 97.801731 1.688232 -4.546242 40.727499 0.000001 0.000001 0.000000 5.705876 -6.837745 78.739377 8.074284 -6.856830 99.349145 2.062609 -4.358277 41.638476 0.000000 0.000000 0.000005 5.756811 -6.845803 80.102970 7.889144 -6.884543 97.801752 1.688226 -4.546243 40.727499 0.000003 -0.000001 0.000002 -33.431833 9.103928 16.179975 29.179316 -9.054079 5.677574 1.309014 -3.775683 -16.876182 -3.456770 -0.000000 -0.000003 -0.000000 -0.000000 -0.000000 -12.330926 -13.274824 -14.551669 39.767547 -0.412509 3.684704 -28.913748 -2.209020 6.958720 -1.621279 0.000012 0.000002 -0.000000 -0.000000 0.000000 
-1.254827 186.149017 -2.631306 1.188739 -24.243154 2.683974 6.315443 2.991374 0.321711 4.742949 2.262353 0.040446 4.719598 2.311116 0.024435 4.910248 3.564653 0.018970 6.834576 -0.537359 -2.183889 -0.000000 -0.000000 -0.000000 -0.000000 -0.000000 -0.000000 -0.000000 -0.000000 -0.000000 3.732779 3.867124 -10.130251 -30.552584 -27.169048 -71.619198 0.000057 -116.756210 0.000058 29.867126 -0.197786 12.277064 4.820116 6.566688 -72.419020 7.352029 6.865139 -93.932935 2.650653 5.432040 -51.995867 -0.000001 0.000001 -0.000002 11.918588 9.119161 -12.322250 14.011671 20.969424 0.558215 30.253145 68.777908 -8.348532 0.000001 0.000001 0.000001 5.610854 6.763470 -79.336588 7.352086 6.865132 -93.933386 2.727241 5.490753 -52.800504 -0.000000 -0.000001 -0.000001 5.553245 6.752469 -78.738551 7.428382 6.859518 -94.571824 2.764913 5.519002 -53.193349 0.000000 -0.000000 -0.000000 6.114373 6.841034 -82.270134 7.319398 2.780965 -93.656838 2.516231 5.324754 -50.561831 -0.000003 -0.000002 -0.000000 3.345349 6.009894 3.809821 -57.825891 28.603743 77.177231 0.000096 110.934655 -0.000107 -13.764477 6.904179 -4.685754 5.418912 -6.778750 76.938318 7.889196 -6.884540 97.802073 2.026695 -4.140236 39.978132 0.000001 -0.000001 -0.000000 4.168281 -11.709915 17.164465 7.020964 -27.100772 -13.838052 38.073868 -44.823950 0.494863 -0.000002 -0.000001 -0.000001 5.756815 -6.845811 80.102976 7.889128 -6.884508 97.801731 1.688232 -4.546244 40.727499 -0.000004 -0.000002 0.000001 5.705876 -6.837746 78.739377 8.074288 -6.856829 99.349145 2.062608 -4.358275 41.638479 -0.000002 -0.000000 0.000000 5.756812 -6.845805 80.102970 7.889143 -6.884544 97.801752 1.688225 -4.546243 40.727499 0.000000 -0.000000 -0.000001 -34.019431 9.259466 16.371205 29.267610 -9.035661 5.246004 3.533909 -5.743003 -16.487489 -5.547941 0.000003 -0.000001 -0.000000 -0.000002 -0.000000 -12.298601 -13.702127 -14.862553 40.164098 -0.787739 4.208898 -28.986018 -2.098950 6.568832 -1.701964 0.000029 -0.000000 -0.000000 -0.000002 0.000000 
-1.425851 186.237762 -3.654241 0.648546 -23.199897 2.790808 6.402853 2.930693 0.426058 4.819354 2.203927 0.022511 4.795375 2.256026 0.005060 5.068622 3.594162 -0.080478 7.592046 -0.561780 -1.983485 0.000001 -0.000000 0.000000 0.000001 -0.000000 0.000000 0.000001 -0.000000 0.000000 3.725141 4.113557 -10.257575 -29.909152 -27.431418 -71.534552 0.000020 -116.375837 0.000025 30.129966 -0.138790 12.061181 4.820119 6.566689 -72.419014 7.352024 6.865137 -93.932935 2.650654 5.432037 -51.995870 -0.000003 -0.000000 0.000000 11.918593 9.119166 -12.322250 14.011668 20.969418 0.558218 30.253155 68.777915 -8.348540 -0.000002 0.000003 0.000001 5.610856 6.763468 -79.336581 7.352086 6.865129 -93.933386 2.727241 5.490757 -52.800497 -0.000000 -0.000000 -0.000001 5.553244 6.752469 -78.738537 7.428382 6.859511 -94.571824 2.764908 5.519003 -53.193349 0.000000 -0.000001 0.000001 6.114376 6.841033 -82.270134 7.319393 2.780962 -93.656838 2.516232 5.324751 -50.561835 0.000000 -0.000000 0.000000 3.298370 5.454031 3.867452 -57.236302 28.622939 77.212802 0.000212 110.969387 -0.000196 -14.114011 7.020118 -5.015121 5.418911 -6.778745 76.938318 7.889198 -6.884541 97.802080 2.026696 -4.140231 39.978129 0.000005 0.000001 -0.000000 4.168280 -11.709913 17.164463 7.020959 -27.100775 -13.838049 38.073862 -44.823957 0.494865 -0.000001 0.000000 -0.000001 5.756814 -6.845810 80.102976 7.889125 -6.884510 97.801731 1.688232 -4.546239 40.727496 -0.000000 0.000000 -0.000002 5.705876 -6.837743 78.739377 8.074286 -6.856830 99.349145 2.062608 -4.358276 41.638476 -0.000002 0.000001 -0.000001 5.756812 -6.845800 80.102970 7.889147 -6.884544 97.801752 1.688225 -4.546241 40.727503 -0.000001 -0.000003 0.000001 -34.475663 9.518723 16.565671 29.385256 -8.875942 4.643906 5.614264 -8.379991 -15.818926 -7.840581 0.000014 -0.000001 0.000000 0.000001 -0.000000 -12.067253 -14.039740 -15.164553 40.464209 -1.345524 4.512537 -29.059139 -2.058127 6.423570 -1.646091 0.000008 0.000000 -0.000000 -0.000000 0.000000 
